<?xml version="1.0" encoding="utf-8"?>
<!-- Generator: Adobe Illustrator 16.0.0, SVG Export Plug-In . SVG Version: 6.00 Build 0)  -->
<!DOCTYPE svg PUBLIC "-//W3C//DTD SVG 1.1//EN" "http://www.w3.org/Graphics/SVG/1.1/DTD/svg11.dtd">
<svg version="1.1" id="Layer_1" xmlns="http://www.w3.org/2000/svg" xmlns:xlink="http://www.w3.org/1999/xlink" x="0px" y="0px"
	 width="60.667px" height="114.333px" viewBox="0 0 60.667 114.333" enable-background="new 0 0 60.667 114.333"
	 xml:space="preserve">
<path fill="#010101" d="M8.463,57.085c-0.146,0.097-7.825,5.048-7.795,9.747c0.03,4.697-1.166,8.5,3.834,13
	s16.631,20.542,15.211,33.835h35.633c0,0-2.38-9.5,1.575-26.191c0,0,3.045-9.49,3.045-17.435c0,0,0.001-10.151,0-15.447
	c0-5.296-2.45-7.913-5.98-9.975c0,0-4.059-1.765-6.412,0c0,0-2.013-5.001-6.315-5.296c0,0-2.257-0.883-6.083,1.177
	c0,0-4.209-3.042-9.07-3.235c0,0-2.722,0.027-3.978,1.766c0,0-4.679-2.225-8.209-0.906c0,0-5.768,1.906-5.474,5.73
	C8.444,43.854,8.229,55.501,8.463,57.085z"/>
<path fill="#010101" d="M22.25,40.166c0-3.575,0.04-6.825,0.031-12.201c-0.004-1.893-0.304-3.292-0.322-3.771
	c-0.092-1.287,0.186-3.104,0.214-5.105c0.05-3.442,0.222-11.545,0.327-14.339c0.167-4.25,10.75-5.083,11.167-0.163
	c0,0,1.166,12.588,1.166,14.755c0,0.45,0.435,2.649,0.542,4.492c0.062,1.08-0.225,2.644-0.139,4
	c0.469,7.472,1.181,12.66,1.181,13.833"/>
</svg>
