<?xml version="1.0" encoding="utf-8"?>
<!-- Generator: Adobe Illustrator 16.0.0, SVG Export Plug-In . SVG Version: 6.00 Build 0)  -->
<!DOCTYPE svg PUBLIC "-//W3C//DTD SVG 1.1//EN" "http://www.w3.org/Graphics/SVG/1.1/DTD/svg11.dtd">
<svg version="1.1" id="Layer_1" xmlns="http://www.w3.org/2000/svg" xmlns:xlink="http://www.w3.org/1999/xlink" x="0px" y="0px"
	 width="76.666px" height="126.166px" viewBox="0 0 76.666 126.166" enable-background="new 0 0 76.666 126.166"
	 xml:space="preserve">
<path fill="#010101" d="M3.258,43.546c0.435,0.109,3.272,2.509,3.272,2.509l2.728,3.708l1.309,1.417l0.654,3.165l1.31,3.816
	l1.635,2.837l0.982,1.854l-0.982,3.708c0,0,0,2.618,0.109,3.163c0.108,0.546,2.072,4.146,2.072,4.146l3.492,8.181L23,88.702
	l2.616,7.962l1.638,8.071c0,0,0.728,8.292,0.654,10.143s0.113,5.163-1.527,9.999c3.577,0,27.671-0.094,28.416-0.094
	c-0.149-0.56-0.216-1.456-0.201-2.068c0.341-4.083,0.604-8.206,1.545-12.206c0.939-4.003,3.037-7.266,4.721-10.964
	c2.009-4.416,3.821-9.03,4.235-13.908c0.208-2.455,0.034-4.809,0.352-7.205c0.075-0.567,0.177-1.139,0.32-1.713
	c1.637-6.62,5.473-12.198,7.559-18.622c0.454-1.4,0.734-2.683,0.449-4.156c-0.514-2.65-0.614-5.059-0.458-7.729
	c0.202-1.273-2.579-4.992-6.714-3.858c-0.009,0.018-1.506,0.382-1.701,0.489c-0.962,0.523-1.515,1.249-2.651,0.752
	c-1.829-0.802-2.897-3.569-3.931-5.149c-2.355-3.597-5.1-4.203-9.162-4.651c-4.178-0.466-8.358-0.702-12.524-1.264
	c0,0,1.854-5.999,1.963-6.544c0.131-0.86,1.009-7.243,1.091-7.854s0.034-4.876-0.108-5.671s-1.072-3.582-1.201-3.928
	s-0.771-1.859-1.2-2.29c-0.429-0.431-1.549-1.083-2.072-1.309s-1.923-0.438-2.182-0.437s-2.498-0.279-2.507,1.527
	c0,0.545,0.326,5.671,0.326,5.671l-0.326,5.019c0,0-0.071,2.881-0.109,3.271s-0.981,2.4-0.981,2.4s-1.943,3.137-2.073,3.49
	s-1.521,4.599-1.638,5.018s-1.56,3.62-1.745,4.145S23,39.401,23,39.401l-0.873,3.927c0,0-0.982-5.562-0.982-6.545
	c0-0.981-0.873-6.218-0.873-6.218l-1.309-4.58l-1.527-4.363c0,0-1.687-3.865-2.073-4.473s-2.338-3.071-2.727-3.381
	s-1.093-0.745-1.637-0.871s-0.898-0.175-1.2-0.109s-1.853,0.763-1.853,0.763s-2.162,0.434-1.2,2.508
	c-0.19-0.19,1.31,3.927,1.31,3.927s1.09,1.746,1.2,2.292c0.109,0.545,1.309,3.708,1.309,3.708l0.435,3.489v4.691l-0.218,4.58
	l0.437,3.382l-1.962-1.854l-1.746-1.2c0,0-0.679-0.477-1.418-0.546s-1.622,0.163-1.962,0.328s-1.31,1.091-1.31,1.091l-0.437,0.654
	C2.385,40.601,1.192,41.469,3.258,43.546z M37.702,55.52c1.38-0.767,2.342-1.853,3.348-3.05c0.891-1.062,1.488-2.274,1.776-3.629
	c0.059-0.278,0.558-3.572,0.39-3.648c2.795,1.26,5.496,0.058,8.033-1.211c-0.603,0.302,2.535,3.446,2.796,3.64
	c1.337,0.986,2.896,1.66,4.512,2.032c1.05,0.243,2.112-0.238,3.091-0.07c-0.251,0.725-0.836,1.334-1.252,1.986
	c-1.281,1.999-2.186,4.199-3.044,6.405c-1.171,3.006-2.624,6.029-5.628,7.574c-3.533,1.818-7.213-0.133-10.729-0.952
	c-1.09-0.257-2.181-0.51-3.271-0.764C38.82,64.088,39.097,54.746,37.702,55.52z"/>
</svg>
