<?xml version="1.0" encoding="utf-8"?>
<!-- Generator: Adobe Illustrator 15.0.0, SVG Export Plug-In . SVG Version: 6.00 Build 0)  -->
<!DOCTYPE svg PUBLIC "-//W3C//DTD SVG 1.1//EN" "http://www.w3.org/Graphics/SVG/1.1/DTD/svg11.dtd">
<svg version="1.1" id="Layer_1" xmlns="http://www.w3.org/2000/svg" xmlns:xlink="http://www.w3.org/1999/xlink" x="0px" y="0px"
	 width="25px" height="25px" viewBox="0 0 25 25" enable-background="new 0 0 25 25" xml:space="preserve">
<path fill="#B3EBB2" d="M12.5,0.5c-6.627,0-12,5.373-12,12s5.373,12,12,12s12-5.373,12-12S19.127,0.5,12.5,0.5z M14.506,6.525
	c0.546-0.043,1.025,0.383,1.062,0.935c0.046,0.721,0.369,1.381,0.91,1.858c0.541,0.478,1.242,0.719,1.957,0.668
	c0.543-0.036,1.022,0.383,1.062,0.935c0.035,0.551-0.384,1.026-0.935,1.062c-0.104,0.006-0.205,0.01-0.309,0.01
	c-1.146,0-2.232-0.411-3.104-1.173c-0.938-0.83-1.504-1.978-1.584-3.232C13.536,7.036,13.955,6.561,14.506,6.525z M6.565,9.986
	c0.717,0.052,1.416-0.19,1.957-0.668c0.541-0.477,0.864-1.137,0.91-1.858c0.035-0.551,0.519-0.977,1.062-0.935
	c0.551,0.035,0.97,0.51,0.935,1.062c-0.08,1.254-0.643,2.402-1.584,3.232c-0.865,0.762-1.957,1.173-3.1,1.173
	c-0.102,0-0.204-0.003-0.306-0.01c-0.551-0.035-0.97-0.51-0.935-1.062C5.539,10.37,6.013,9.951,6.565,9.986z M12.75,20.885
	c-4.833,0-8.75-1.381-8.75-3.083s3.917-3.083,8.75-3.083s8.75,1.381,8.75,3.083S17.583,20.885,12.75,20.885z"/>
<path fill="#FFFFFF" stroke="#B3EBB2" stroke-miterlimit="10" d="M17.516,20.12c0,2.257-2.244,4.089-5.016,4.089
	c-2.771,0-5.016-1.832-5.016-4.089c0-1.533,1.021-2.304,2.571-2.318c0.753-0.008,2.194,0,2.444,1.742
	c0.312-1.742,2.121-1.628,3.11-1.618C16.809,17.938,17.516,18.822,17.516,20.12z"/>
</svg>
