<?xml version="1.0" encoding="utf-8"?>
<!-- Generator: Adobe Illustrator 15.0.0, SVG Export Plug-In . SVG Version: 6.00 Build 0)  -->
<!DOCTYPE svg PUBLIC "-//W3C//DTD SVG 1.1//EN" "http://www.w3.org/Graphics/SVG/1.1/DTD/svg11.dtd">
<svg version="1.1" id="Layer_1" xmlns="http://www.w3.org/2000/svg" xmlns:xlink="http://www.w3.org/1999/xlink" x="0px" y="0px"
	 width="25px" height="25px" viewBox="0 0 25 25" enable-background="new 0 0 25 25" xml:space="preserve">
<path fill="#F5A216" d="M12.5,0.5c-6.627,0-12,5.373-12,12s5.373,12,12,12s12-5.373,12-12S19.127,0.5,12.5,0.5z M16.605,6.475
	c1.545,0,2.797,1.25,2.797,2.793c0,1.544-1.252,2.794-2.797,2.794c-1.541,0-2.793-1.25-2.793-2.794
	C13.812,7.725,15.064,6.475,16.605,6.475z M8.226,6.475c1.543,0,2.794,1.25,2.794,2.793c0,1.544-1.251,2.794-2.794,2.794
	c-1.544,0-2.795-1.25-2.795-2.794C5.431,7.725,6.683,6.475,8.226,6.475z M12.5,22.979c-5.097,0-9.229-4.131-9.229-9.229
	c5.604,0,12.146,0,18.458,0C21.729,18.848,17.598,22.979,12.5,22.979z"/>
</svg>
