<?xml version="1.0" encoding="utf-8"?>
<!-- Generator: Adobe Illustrator 15.0.0, SVG Export Plug-In . SVG Version: 6.00 Build 0)  -->
<!DOCTYPE svg PUBLIC "-//W3C//DTD SVG 1.1//EN" "http://www.w3.org/Graphics/SVG/1.1/DTD/svg11.dtd">
<svg version="1.1" id="Layer_1" xmlns="http://www.w3.org/2000/svg" xmlns:xlink="http://www.w3.org/1999/xlink" x="0px" y="0px"
	 width="25px" height="25px" viewBox="0 0 25 25" enable-background="new 0 0 25 25" xml:space="preserve">
<path fill="#AADAC7" d="M12.5,0.5c-6.627,0-12,5.373-12,12s5.373,12,12,12s12-5.373,12-12S19.127,0.5,12.5,0.5z M12.611,21.708
	c-2.388,0-4.324-1.505-4.324-3.362c0-1.856,1.936-3.361,4.324-3.361c2.387,0,4.323,1.505,4.323,3.361
	C16.934,20.203,14.998,21.708,12.611,21.708z M15.884,5.767c1.247,0,2.259,1.409,2.259,3.147c0,1.739-1.012,3.148-2.259,3.148
	c-1.245,0-2.256-1.409-2.256-3.148C13.628,7.175,14.639,5.767,15.884,5.767z M9.116,5.767c1.246,0,2.256,1.409,2.256,3.147
	c0,1.739-1.01,3.148-2.256,3.148c-1.247,0-2.257-1.409-2.257-3.148C6.858,7.175,7.87,5.767,9.116,5.767z"/>
</svg>
